<mxfile host="Electron" modified="2024-07-20T00:03:44.440Z" agent="Mozilla/5.0 (Windows NT 10.0; Win64; x64) AppleWebKit/537.36 (KHTML, like Gecko) draw.io/24.5.3 Chrome/124.0.6367.207 Electron/30.0.6 Safari/537.36" etag="8ME0Muw6ffbEqCEfhjO9" version="24.5.3" type="device">
  <diagram id="C5RBs43oDa-KdzZeNtuy" name="Page-1">
    <mxGraphModel dx="1000" dy="591" grid="1" gridSize="10" guides="1" tooltips="1" connect="1" arrows="1" fold="1" page="1" pageScale="1" pageWidth="827" pageHeight="1169" math="0" shadow="0">
      <root>
        <mxCell id="WIyWlLk6GJQsqaUBKTNV-0" />
        <mxCell id="WIyWlLk6GJQsqaUBKTNV-1" parent="WIyWlLk6GJQsqaUBKTNV-0" />
        <mxCell id="WCVm8ar0B4mmCVV7r0yf-4" value="" style="edgeStyle=orthogonalEdgeStyle;rounded=0;orthogonalLoop=1;jettySize=auto;html=1;fillColor=#dae8fc;strokeColor=#6c8ebf;" edge="1" parent="WIyWlLk6GJQsqaUBKTNV-1" source="WCVm8ar0B4mmCVV7r0yf-0" target="WCVm8ar0B4mmCVV7r0yf-3">
          <mxGeometry relative="1" as="geometry" />
        </mxCell>
        <mxCell id="WCVm8ar0B4mmCVV7r0yf-0" value="start" style="rounded=1;whiteSpace=wrap;html=1;fillColor=#dae8fc;strokeColor=#6c8ebf;" vertex="1" parent="WIyWlLk6GJQsqaUBKTNV-1">
          <mxGeometry x="354" y="80" width="120" height="60" as="geometry" />
        </mxCell>
        <mxCell id="WCVm8ar0B4mmCVV7r0yf-6" value="Yes" style="edgeStyle=orthogonalEdgeStyle;rounded=0;orthogonalLoop=1;jettySize=auto;html=1;fillColor=#dae8fc;strokeColor=#6c8ebf;" edge="1" parent="WIyWlLk6GJQsqaUBKTNV-1" source="WCVm8ar0B4mmCVV7r0yf-3" target="WCVm8ar0B4mmCVV7r0yf-5">
          <mxGeometry relative="1" as="geometry" />
        </mxCell>
        <mxCell id="WCVm8ar0B4mmCVV7r0yf-3" value="The robot in&amp;nbsp;&lt;div&gt;danger zone ?&lt;/div&gt;" style="rhombus;whiteSpace=wrap;html=1;rounded=1;fillColor=#f8cecc;strokeColor=#b85450;" vertex="1" parent="WIyWlLk6GJQsqaUBKTNV-1">
          <mxGeometry x="346" y="195" width="136" height="110" as="geometry" />
        </mxCell>
        <mxCell id="WCVm8ar0B4mmCVV7r0yf-81" style="edgeStyle=orthogonalEdgeStyle;rounded=0;orthogonalLoop=1;jettySize=auto;html=1;exitX=0.5;exitY=1;exitDx=0;exitDy=0;entryX=0.5;entryY=0;entryDx=0;entryDy=0;" edge="1" parent="WIyWlLk6GJQsqaUBKTNV-1" source="WCVm8ar0B4mmCVV7r0yf-5" target="WCVm8ar0B4mmCVV7r0yf-15">
          <mxGeometry relative="1" as="geometry" />
        </mxCell>
        <mxCell id="WCVm8ar0B4mmCVV7r0yf-5" value="Return to the safe zone" style="whiteSpace=wrap;html=1;rounded=1;fillColor=#f8cecc;strokeColor=#b85450;" vertex="1" parent="WIyWlLk6GJQsqaUBKTNV-1">
          <mxGeometry x="612.5" y="220" width="120" height="60" as="geometry" />
        </mxCell>
        <mxCell id="WCVm8ar0B4mmCVV7r0yf-82" style="edgeStyle=orthogonalEdgeStyle;rounded=0;orthogonalLoop=1;jettySize=auto;html=1;exitX=0.5;exitY=1;exitDx=0;exitDy=0;entryX=0.5;entryY=0;entryDx=0;entryDy=0;" edge="1" parent="WIyWlLk6GJQsqaUBKTNV-1" source="WCVm8ar0B4mmCVV7r0yf-15" target="WCVm8ar0B4mmCVV7r0yf-21">
          <mxGeometry relative="1" as="geometry" />
        </mxCell>
        <mxCell id="WCVm8ar0B4mmCVV7r0yf-93" value="NO" style="edgeStyle=orthogonalEdgeStyle;rounded=0;orthogonalLoop=1;jettySize=auto;html=1;exitX=0;exitY=0.5;exitDx=0;exitDy=0;entryX=1;entryY=0.5;entryDx=0;entryDy=0;" edge="1" parent="WIyWlLk6GJQsqaUBKTNV-1" source="WCVm8ar0B4mmCVV7r0yf-15" target="WCVm8ar0B4mmCVV7r0yf-28">
          <mxGeometry relative="1" as="geometry" />
        </mxCell>
        <mxCell id="WCVm8ar0B4mmCVV7r0yf-15" value="Are right sensors read&lt;div&gt;&amp;nbsp;distence&amp;nbsp;&lt;span style=&quot;background-color: initial;&quot;&gt;more than 100 ?&lt;/span&gt;&lt;/div&gt;" style="rhombus;whiteSpace=wrap;html=1;fillColor=#dae8fc;strokeColor=#6c8ebf;rounded=1;" vertex="1" parent="WIyWlLk6GJQsqaUBKTNV-1">
          <mxGeometry x="582" y="310" width="181" height="130" as="geometry" />
        </mxCell>
        <mxCell id="WCVm8ar0B4mmCVV7r0yf-89" style="edgeStyle=orthogonalEdgeStyle;rounded=0;orthogonalLoop=1;jettySize=auto;html=1;exitX=0.5;exitY=1;exitDx=0;exitDy=0;entryX=0.5;entryY=0;entryDx=0;entryDy=0;" edge="1" parent="WIyWlLk6GJQsqaUBKTNV-1" source="WCVm8ar0B4mmCVV7r0yf-18" target="WCVm8ar0B4mmCVV7r0yf-52">
          <mxGeometry relative="1" as="geometry" />
        </mxCell>
        <mxCell id="WCVm8ar0B4mmCVV7r0yf-18" value="Turn right" style="whiteSpace=wrap;html=1;fillColor=#dae8fc;strokeColor=#6c8ebf;rounded=1;" vertex="1" parent="WIyWlLk6GJQsqaUBKTNV-1">
          <mxGeometry x="612.5" y="555" width="120" height="60" as="geometry" />
        </mxCell>
        <mxCell id="WCVm8ar0B4mmCVV7r0yf-83" style="edgeStyle=orthogonalEdgeStyle;rounded=0;orthogonalLoop=1;jettySize=auto;html=1;exitX=0.5;exitY=1;exitDx=0;exitDy=0;entryX=0.5;entryY=0;entryDx=0;entryDy=0;" edge="1" parent="WIyWlLk6GJQsqaUBKTNV-1" source="WCVm8ar0B4mmCVV7r0yf-21" target="WCVm8ar0B4mmCVV7r0yf-18">
          <mxGeometry relative="1" as="geometry" />
        </mxCell>
        <mxCell id="WCVm8ar0B4mmCVV7r0yf-84" value="" style="edgeStyle=orthogonalEdgeStyle;rounded=0;orthogonalLoop=1;jettySize=auto;html=1;" edge="1" parent="WIyWlLk6GJQsqaUBKTNV-1" source="WCVm8ar0B4mmCVV7r0yf-21" target="WCVm8ar0B4mmCVV7r0yf-15">
          <mxGeometry relative="1" as="geometry" />
        </mxCell>
        <mxCell id="WCVm8ar0B4mmCVV7r0yf-85" value="Yes" style="edgeLabel;html=1;align=center;verticalAlign=middle;resizable=0;points=[];" vertex="1" connectable="0" parent="WCVm8ar0B4mmCVV7r0yf-84">
          <mxGeometry x="0.6242" y="2" relative="1" as="geometry">
            <mxPoint as="offset" />
          </mxGeometry>
        </mxCell>
        <mxCell id="WCVm8ar0B4mmCVV7r0yf-21" value="clockwise = True" style="whiteSpace=wrap;html=1;fillColor=#dae8fc;strokeColor=#6c8ebf;rounded=1;" vertex="1" parent="WIyWlLk6GJQsqaUBKTNV-1">
          <mxGeometry x="597.5" y="470" width="150" height="55" as="geometry" />
        </mxCell>
        <mxCell id="WCVm8ar0B4mmCVV7r0yf-31" style="edgeStyle=orthogonalEdgeStyle;rounded=0;orthogonalLoop=1;jettySize=auto;html=1;exitX=0.5;exitY=0;exitDx=0;exitDy=0;entryX=0;entryY=0.5;entryDx=0;entryDy=0;" edge="1" parent="WIyWlLk6GJQsqaUBKTNV-1" source="WCVm8ar0B4mmCVV7r0yf-28" target="WCVm8ar0B4mmCVV7r0yf-3">
          <mxGeometry relative="1" as="geometry" />
        </mxCell>
        <mxCell id="WCVm8ar0B4mmCVV7r0yf-33" value="NO" style="edgeLabel;html=1;align=center;verticalAlign=middle;resizable=0;points=[];" vertex="1" connectable="0" parent="WCVm8ar0B4mmCVV7r0yf-31">
          <mxGeometry x="0.1593" y="-2" relative="1" as="geometry">
            <mxPoint y="-2" as="offset" />
          </mxGeometry>
        </mxCell>
        <mxCell id="WCVm8ar0B4mmCVV7r0yf-60" style="edgeStyle=orthogonalEdgeStyle;rounded=0;orthogonalLoop=1;jettySize=auto;html=1;exitX=0.5;exitY=1;exitDx=0;exitDy=0;entryX=0.5;entryY=0;entryDx=0;entryDy=0;" edge="1" parent="WIyWlLk6GJQsqaUBKTNV-1" source="WCVm8ar0B4mmCVV7r0yf-28" target="WCVm8ar0B4mmCVV7r0yf-36">
          <mxGeometry relative="1" as="geometry" />
        </mxCell>
        <mxCell id="WCVm8ar0B4mmCVV7r0yf-86" value="Yes" style="edgeLabel;html=1;align=center;verticalAlign=middle;resizable=0;points=[];" vertex="1" connectable="0" parent="WCVm8ar0B4mmCVV7r0yf-60">
          <mxGeometry x="-0.4381" y="-2" relative="1" as="geometry">
            <mxPoint as="offset" />
          </mxGeometry>
        </mxCell>
        <mxCell id="WCVm8ar0B4mmCVV7r0yf-28" value="Are left sensors read&lt;div&gt;&amp;nbsp;distence&amp;nbsp;&lt;span style=&quot;background-color: initial;&quot;&gt;more than 100 ?&lt;/span&gt;&lt;/div&gt;" style="rhombus;whiteSpace=wrap;html=1;fillColor=#dae8fc;strokeColor=#6c8ebf;rounded=1;" vertex="1" parent="WIyWlLk6GJQsqaUBKTNV-1">
          <mxGeometry x="90" y="310" width="181" height="130" as="geometry" />
        </mxCell>
        <mxCell id="WCVm8ar0B4mmCVV7r0yf-88" style="edgeStyle=orthogonalEdgeStyle;rounded=0;orthogonalLoop=1;jettySize=auto;html=1;exitX=0.5;exitY=1;exitDx=0;exitDy=0;entryX=0.5;entryY=0;entryDx=0;entryDy=0;" edge="1" parent="WIyWlLk6GJQsqaUBKTNV-1" source="WCVm8ar0B4mmCVV7r0yf-34" target="WCVm8ar0B4mmCVV7r0yf-51">
          <mxGeometry relative="1" as="geometry" />
        </mxCell>
        <mxCell id="WCVm8ar0B4mmCVV7r0yf-34" value="Turn left" style="whiteSpace=wrap;html=1;fillColor=#dae8fc;strokeColor=#6c8ebf;rounded=1;" vertex="1" parent="WIyWlLk6GJQsqaUBKTNV-1">
          <mxGeometry x="120.5" y="552" width="120" height="60" as="geometry" />
        </mxCell>
        <mxCell id="WCVm8ar0B4mmCVV7r0yf-87" style="edgeStyle=orthogonalEdgeStyle;rounded=0;orthogonalLoop=1;jettySize=auto;html=1;exitX=0.5;exitY=1;exitDx=0;exitDy=0;entryX=0.5;entryY=0;entryDx=0;entryDy=0;" edge="1" parent="WIyWlLk6GJQsqaUBKTNV-1" source="WCVm8ar0B4mmCVV7r0yf-36" target="WCVm8ar0B4mmCVV7r0yf-34">
          <mxGeometry relative="1" as="geometry" />
        </mxCell>
        <mxCell id="WCVm8ar0B4mmCVV7r0yf-36" value="counter_clockwise = True" style="whiteSpace=wrap;html=1;fillColor=#dae8fc;strokeColor=#6c8ebf;rounded=1;" vertex="1" parent="WIyWlLk6GJQsqaUBKTNV-1">
          <mxGeometry x="100.75" y="470" width="159.5" height="55" as="geometry" />
        </mxCell>
        <mxCell id="WCVm8ar0B4mmCVV7r0yf-56" style="edgeStyle=orthogonalEdgeStyle;rounded=0;orthogonalLoop=1;jettySize=auto;html=1;exitX=0.5;exitY=1;exitDx=0;exitDy=0;entryX=0.5;entryY=0;entryDx=0;entryDy=0;" edge="1" parent="WIyWlLk6GJQsqaUBKTNV-1" source="WCVm8ar0B4mmCVV7r0yf-38" target="WCVm8ar0B4mmCVV7r0yf-55">
          <mxGeometry relative="1" as="geometry" />
        </mxCell>
        <mxCell id="WCVm8ar0B4mmCVV7r0yf-57" value="NO" style="edgeLabel;html=1;align=center;verticalAlign=middle;resizable=0;points=[];" vertex="1" connectable="0" parent="WCVm8ar0B4mmCVV7r0yf-56">
          <mxGeometry x="-0.1837" y="-2" relative="1" as="geometry">
            <mxPoint as="offset" />
          </mxGeometry>
        </mxCell>
        <mxCell id="WCVm8ar0B4mmCVV7r0yf-38" value="The robot in&amp;nbsp;&lt;div&gt;danger zone ?&lt;/div&gt;" style="rhombus;whiteSpace=wrap;html=1;rounded=1;fillColor=#f8cecc;strokeColor=#b85450;" vertex="1" parent="WIyWlLk6GJQsqaUBKTNV-1">
          <mxGeometry x="604.5" y="860" width="136" height="110" as="geometry" />
        </mxCell>
        <mxCell id="WCVm8ar0B4mmCVV7r0yf-49" value="NO" style="edgeStyle=orthogonalEdgeStyle;rounded=0;orthogonalLoop=1;jettySize=auto;html=1;entryX=0.5;entryY=0;entryDx=0;entryDy=0;" edge="1" parent="WIyWlLk6GJQsqaUBKTNV-1" source="WCVm8ar0B4mmCVV7r0yf-39" target="WCVm8ar0B4mmCVV7r0yf-58">
          <mxGeometry relative="1" as="geometry">
            <mxPoint x="180.47619047619037" y="860" as="targetPoint" />
          </mxGeometry>
        </mxCell>
        <mxCell id="WCVm8ar0B4mmCVV7r0yf-39" value="The robot in&amp;nbsp;&lt;div&gt;danger zone ?&lt;/div&gt;" style="rhombus;whiteSpace=wrap;html=1;rounded=1;fillColor=#f8cecc;strokeColor=#b85450;" vertex="1" parent="WIyWlLk6GJQsqaUBKTNV-1">
          <mxGeometry x="112.5" y="860" width="136" height="110" as="geometry" />
        </mxCell>
        <mxCell id="WCVm8ar0B4mmCVV7r0yf-42" value="Yes" style="edgeStyle=orthogonalEdgeStyle;rounded=0;orthogonalLoop=1;jettySize=auto;html=1;fillColor=#dae8fc;strokeColor=#6c8ebf;exitX=0;exitY=0.5;exitDx=0;exitDy=0;" edge="1" parent="WIyWlLk6GJQsqaUBKTNV-1" target="WCVm8ar0B4mmCVV7r0yf-43" source="WCVm8ar0B4mmCVV7r0yf-38">
          <mxGeometry relative="1" as="geometry">
            <mxPoint x="590" y="670" as="sourcePoint" />
          </mxGeometry>
        </mxCell>
        <mxCell id="WCVm8ar0B4mmCVV7r0yf-79" style="edgeStyle=orthogonalEdgeStyle;rounded=0;orthogonalLoop=1;jettySize=auto;html=1;exitX=0.5;exitY=1;exitDx=0;exitDy=0;entryX=0;entryY=0.5;entryDx=0;entryDy=0;" edge="1" parent="WIyWlLk6GJQsqaUBKTNV-1" source="WCVm8ar0B4mmCVV7r0yf-43" target="WCVm8ar0B4mmCVV7r0yf-55">
          <mxGeometry relative="1" as="geometry" />
        </mxCell>
        <mxCell id="WCVm8ar0B4mmCVV7r0yf-43" value="Return to the safe zone" style="whiteSpace=wrap;html=1;rounded=1;fillColor=#f8cecc;strokeColor=#b85450;" vertex="1" parent="WIyWlLk6GJQsqaUBKTNV-1">
          <mxGeometry x="440" y="885" width="120" height="60" as="geometry" />
        </mxCell>
        <mxCell id="WCVm8ar0B4mmCVV7r0yf-44" value="Yes" style="edgeStyle=orthogonalEdgeStyle;rounded=0;orthogonalLoop=1;jettySize=auto;html=1;fillColor=#dae8fc;strokeColor=#6c8ebf;exitX=1;exitY=0.5;exitDx=0;exitDy=0;" edge="1" parent="WIyWlLk6GJQsqaUBKTNV-1" target="WCVm8ar0B4mmCVV7r0yf-45" source="WCVm8ar0B4mmCVV7r0yf-39">
          <mxGeometry relative="1" as="geometry">
            <mxPoint x="266" y="750" as="sourcePoint" />
          </mxGeometry>
        </mxCell>
        <mxCell id="WCVm8ar0B4mmCVV7r0yf-80" style="edgeStyle=orthogonalEdgeStyle;rounded=0;orthogonalLoop=1;jettySize=auto;html=1;exitX=0.5;exitY=1;exitDx=0;exitDy=0;entryX=1;entryY=0.5;entryDx=0;entryDy=0;" edge="1" parent="WIyWlLk6GJQsqaUBKTNV-1" source="WCVm8ar0B4mmCVV7r0yf-45" target="WCVm8ar0B4mmCVV7r0yf-58">
          <mxGeometry relative="1" as="geometry" />
        </mxCell>
        <mxCell id="WCVm8ar0B4mmCVV7r0yf-45" value="Return to the safe zone" style="whiteSpace=wrap;html=1;rounded=1;fillColor=#f8cecc;strokeColor=#b85450;" vertex="1" parent="WIyWlLk6GJQsqaUBKTNV-1">
          <mxGeometry x="280" y="885" width="120" height="60" as="geometry" />
        </mxCell>
        <mxCell id="WCVm8ar0B4mmCVV7r0yf-63" value="" style="edgeStyle=orthogonalEdgeStyle;rounded=0;orthogonalLoop=1;jettySize=auto;html=1;" edge="1" parent="WIyWlLk6GJQsqaUBKTNV-1" source="WCVm8ar0B4mmCVV7r0yf-51" target="WCVm8ar0B4mmCVV7r0yf-62">
          <mxGeometry relative="1" as="geometry" />
        </mxCell>
        <mxCell id="WCVm8ar0B4mmCVV7r0yf-51" value="Counter = counter + 1" style="rounded=1;whiteSpace=wrap;html=1;fillColor=#dae8fc;strokeColor=#6c8ebf;" vertex="1" parent="WIyWlLk6GJQsqaUBKTNV-1">
          <mxGeometry x="120.5" y="630" width="120" height="60" as="geometry" />
        </mxCell>
        <mxCell id="WCVm8ar0B4mmCVV7r0yf-90" style="edgeStyle=orthogonalEdgeStyle;rounded=0;orthogonalLoop=1;jettySize=auto;html=1;exitX=0.5;exitY=1;exitDx=0;exitDy=0;" edge="1" parent="WIyWlLk6GJQsqaUBKTNV-1" source="WCVm8ar0B4mmCVV7r0yf-52" target="WCVm8ar0B4mmCVV7r0yf-67">
          <mxGeometry relative="1" as="geometry" />
        </mxCell>
        <mxCell id="WCVm8ar0B4mmCVV7r0yf-52" value="Counter = counter + 1" style="rounded=1;whiteSpace=wrap;html=1;fillColor=#dae8fc;strokeColor=#6c8ebf;" vertex="1" parent="WIyWlLk6GJQsqaUBKTNV-1">
          <mxGeometry x="612.5" y="630" width="120" height="60" as="geometry" />
        </mxCell>
        <mxCell id="WCVm8ar0B4mmCVV7r0yf-94" value="NO" style="edgeStyle=orthogonalEdgeStyle;rounded=0;orthogonalLoop=1;jettySize=auto;html=1;exitX=1;exitY=0.5;exitDx=0;exitDy=0;entryX=1;entryY=0.5;entryDx=0;entryDy=0;" edge="1" parent="WIyWlLk6GJQsqaUBKTNV-1" source="WCVm8ar0B4mmCVV7r0yf-55" target="WCVm8ar0B4mmCVV7r0yf-38">
          <mxGeometry relative="1" as="geometry" />
        </mxCell>
        <mxCell id="WCVm8ar0B4mmCVV7r0yf-95" value="YES" style="edgeStyle=orthogonalEdgeStyle;rounded=0;orthogonalLoop=1;jettySize=auto;html=1;exitX=0.5;exitY=1;exitDx=0;exitDy=0;entryX=1;entryY=0.5;entryDx=0;entryDy=0;" edge="1" parent="WIyWlLk6GJQsqaUBKTNV-1" source="WCVm8ar0B4mmCVV7r0yf-55" target="WCVm8ar0B4mmCVV7r0yf-18">
          <mxGeometry relative="1" as="geometry">
            <Array as="points">
              <mxPoint x="672" y="1150" />
              <mxPoint x="800" y="1150" />
              <mxPoint x="800" y="585" />
            </Array>
          </mxGeometry>
        </mxCell>
        <mxCell id="WCVm8ar0B4mmCVV7r0yf-55" value="Are right sensors read&lt;div&gt;&amp;nbsp;distence&amp;nbsp;&lt;span style=&quot;background-color: initial;&quot;&gt;more than 100 ?&lt;/span&gt;&lt;/div&gt;" style="rhombus;whiteSpace=wrap;html=1;fillColor=#dae8fc;strokeColor=#6c8ebf;rounded=1;" vertex="1" parent="WIyWlLk6GJQsqaUBKTNV-1">
          <mxGeometry x="582" y="1000" width="181" height="130" as="geometry" />
        </mxCell>
        <mxCell id="WCVm8ar0B4mmCVV7r0yf-96" value="NO" style="edgeStyle=orthogonalEdgeStyle;rounded=0;orthogonalLoop=1;jettySize=auto;html=1;exitX=0;exitY=0.5;exitDx=0;exitDy=0;entryX=0;entryY=0.5;entryDx=0;entryDy=0;" edge="1" parent="WIyWlLk6GJQsqaUBKTNV-1" source="WCVm8ar0B4mmCVV7r0yf-58" target="WCVm8ar0B4mmCVV7r0yf-39">
          <mxGeometry relative="1" as="geometry" />
        </mxCell>
        <mxCell id="WCVm8ar0B4mmCVV7r0yf-97" value="YES" style="edgeStyle=orthogonalEdgeStyle;rounded=0;orthogonalLoop=1;jettySize=auto;html=1;exitX=0.5;exitY=1;exitDx=0;exitDy=0;entryX=0;entryY=0.5;entryDx=0;entryDy=0;" edge="1" parent="WIyWlLk6GJQsqaUBKTNV-1" source="WCVm8ar0B4mmCVV7r0yf-58" target="WCVm8ar0B4mmCVV7r0yf-34">
          <mxGeometry relative="1" as="geometry">
            <Array as="points">
              <mxPoint x="180" y="1150" />
              <mxPoint x="40" y="1150" />
              <mxPoint x="40" y="582" />
            </Array>
          </mxGeometry>
        </mxCell>
        <mxCell id="WCVm8ar0B4mmCVV7r0yf-58" value="Are left sensors read&lt;div&gt;&amp;nbsp;distence&amp;nbsp;&lt;span style=&quot;background-color: initial;&quot;&gt;more than 100 ?&lt;/span&gt;&lt;/div&gt;" style="rhombus;whiteSpace=wrap;html=1;fillColor=#dae8fc;strokeColor=#6c8ebf;rounded=1;" vertex="1" parent="WIyWlLk6GJQsqaUBKTNV-1">
          <mxGeometry x="90" y="1000" width="181" height="130" as="geometry" />
        </mxCell>
        <mxCell id="WCVm8ar0B4mmCVV7r0yf-73" style="edgeStyle=orthogonalEdgeStyle;rounded=0;orthogonalLoop=1;jettySize=auto;html=1;exitX=0.5;exitY=1;exitDx=0;exitDy=0;entryX=0.5;entryY=1;entryDx=0;entryDy=0;" edge="1" parent="WIyWlLk6GJQsqaUBKTNV-1" source="WCVm8ar0B4mmCVV7r0yf-62" target="WCVm8ar0B4mmCVV7r0yf-65">
          <mxGeometry relative="1" as="geometry" />
        </mxCell>
        <mxCell id="WCVm8ar0B4mmCVV7r0yf-92" value="YES" style="edgeLabel;html=1;align=center;verticalAlign=middle;resizable=0;points=[];" vertex="1" connectable="0" parent="WCVm8ar0B4mmCVV7r0yf-73">
          <mxGeometry x="-0.0558" y="1" relative="1" as="geometry">
            <mxPoint as="offset" />
          </mxGeometry>
        </mxCell>
        <mxCell id="WCVm8ar0B4mmCVV7r0yf-77" value="NO" style="edgeStyle=orthogonalEdgeStyle;rounded=0;orthogonalLoop=1;jettySize=auto;html=1;exitX=0;exitY=0.5;exitDx=0;exitDy=0;entryX=0;entryY=0.5;entryDx=0;entryDy=0;" edge="1" parent="WIyWlLk6GJQsqaUBKTNV-1" source="WCVm8ar0B4mmCVV7r0yf-62" target="WCVm8ar0B4mmCVV7r0yf-39">
          <mxGeometry relative="1" as="geometry" />
        </mxCell>
        <mxCell id="WCVm8ar0B4mmCVV7r0yf-62" value="Is counter bigger&lt;div&gt;&amp;nbsp;than 12 ?&lt;/div&gt;" style="rhombus;whiteSpace=wrap;html=1;fillColor=#dae8fc;strokeColor=#6c8ebf;rounded=1;" vertex="1" parent="WIyWlLk6GJQsqaUBKTNV-1">
          <mxGeometry x="108.5" y="707.5" width="140" height="122.5" as="geometry" />
        </mxCell>
        <mxCell id="WCVm8ar0B4mmCVV7r0yf-70" value="" style="edgeStyle=orthogonalEdgeStyle;rounded=0;orthogonalLoop=1;jettySize=auto;html=1;" edge="1" parent="WIyWlLk6GJQsqaUBKTNV-1" source="WCVm8ar0B4mmCVV7r0yf-65" target="WCVm8ar0B4mmCVV7r0yf-69">
          <mxGeometry relative="1" as="geometry" />
        </mxCell>
        <mxCell id="WCVm8ar0B4mmCVV7r0yf-76" value="Yes" style="edgeLabel;html=1;align=center;verticalAlign=middle;resizable=0;points=[];" vertex="1" connectable="0" parent="WCVm8ar0B4mmCVV7r0yf-70">
          <mxGeometry x="-0.2884" y="-1" relative="1" as="geometry">
            <mxPoint as="offset" />
          </mxGeometry>
        </mxCell>
        <mxCell id="WCVm8ar0B4mmCVV7r0yf-65" value="Is the robot&amp;nbsp; in the middle&amp;nbsp;&lt;div&gt;of the section?&lt;/div&gt;" style="rhombus;whiteSpace=wrap;html=1;fillColor=#dae8fc;strokeColor=#6c8ebf;rounded=1;" vertex="1" parent="WIyWlLk6GJQsqaUBKTNV-1">
          <mxGeometry x="320" y="687.5" width="200" height="142.5" as="geometry" />
        </mxCell>
        <mxCell id="WCVm8ar0B4mmCVV7r0yf-72" style="edgeStyle=orthogonalEdgeStyle;rounded=0;orthogonalLoop=1;jettySize=auto;html=1;exitX=0.5;exitY=1;exitDx=0;exitDy=0;entryX=0.5;entryY=1;entryDx=0;entryDy=0;" edge="1" parent="WIyWlLk6GJQsqaUBKTNV-1" source="WCVm8ar0B4mmCVV7r0yf-67" target="WCVm8ar0B4mmCVV7r0yf-65">
          <mxGeometry relative="1" as="geometry" />
        </mxCell>
        <mxCell id="WCVm8ar0B4mmCVV7r0yf-91" value="Yes" style="edgeLabel;html=1;align=center;verticalAlign=middle;resizable=0;points=[];" vertex="1" connectable="0" parent="WCVm8ar0B4mmCVV7r0yf-72">
          <mxGeometry x="-0.0212" relative="1" as="geometry">
            <mxPoint as="offset" />
          </mxGeometry>
        </mxCell>
        <mxCell id="WCVm8ar0B4mmCVV7r0yf-78" value="NO" style="edgeStyle=orthogonalEdgeStyle;rounded=0;orthogonalLoop=1;jettySize=auto;html=1;exitX=1;exitY=0.5;exitDx=0;exitDy=0;entryX=1;entryY=0.5;entryDx=0;entryDy=0;" edge="1" parent="WIyWlLk6GJQsqaUBKTNV-1" source="WCVm8ar0B4mmCVV7r0yf-67" target="WCVm8ar0B4mmCVV7r0yf-38">
          <mxGeometry relative="1" as="geometry" />
        </mxCell>
        <mxCell id="WCVm8ar0B4mmCVV7r0yf-67" value="Is counter bigger&lt;div&gt;&amp;nbsp;than 12 ?&lt;/div&gt;" style="rhombus;whiteSpace=wrap;html=1;fillColor=#dae8fc;strokeColor=#6c8ebf;rounded=1;" vertex="1" parent="WIyWlLk6GJQsqaUBKTNV-1">
          <mxGeometry x="602.5" y="707.5" width="140" height="122.5" as="geometry" />
        </mxCell>
        <mxCell id="WCVm8ar0B4mmCVV7r0yf-69" value="Stop" style="whiteSpace=wrap;html=1;fillColor=#dae8fc;strokeColor=#6c8ebf;rounded=1;" vertex="1" parent="WIyWlLk6GJQsqaUBKTNV-1">
          <mxGeometry x="360" y="540" width="120" height="60" as="geometry" />
        </mxCell>
        <mxCell id="WCVm8ar0B4mmCVV7r0yf-74" value="NO" style="edgeStyle=orthogonalEdgeStyle;rounded=0;orthogonalLoop=1;jettySize=auto;html=1;exitX=1;exitY=0.5;exitDx=0;exitDy=0;entryX=0;entryY=0.5;entryDx=0;entryDy=0;" edge="1" parent="WIyWlLk6GJQsqaUBKTNV-1" source="WCVm8ar0B4mmCVV7r0yf-65" target="WCVm8ar0B4mmCVV7r0yf-65">
          <mxGeometry relative="1" as="geometry">
            <Array as="points">
              <mxPoint x="514" y="490" />
              <mxPoint x="314" y="490" />
            </Array>
          </mxGeometry>
        </mxCell>
      </root>
    </mxGraphModel>
  </diagram>
</mxfile>
